<?xml version="1.0" standalone="no"?>
<!DOCTYPE svg PUBLIC "-//W3C//DTD SVG 20010904//EN"
 "http://www.w3.org/TR/2001/REC-SVG-20010904/DTD/svg10.dtd">
<svg version="1.0" xmlns="http://www.w3.org/2000/svg"
 width="250.000000pt" height="250.000000pt" viewBox="0 0 250.000000 250.000000"
 preserveAspectRatio="xMidYMid meet">
<metadata>
Created by potrace 1.14, written by Peter Selinger 2001-2017
</metadata>
<g transform="translate(0.000000,250.000000) scale(0.100000,-0.100000)"
fill="#000000" stroke="none">
<path d="M0 2030 l0 -470 80 0 80 0 0 -235 0 -235 230 0 230 0 0 -75 0 -75
-75 0 -75 0 0 -80 0 -80 -155 0 -155 0 0 80 0 80 -80 0 -80 0 0 -155 0 -155
235 0 235 0 0 75 0 75 75 0 75 0 0 -235 0 -235 -155 0 -155 0 0 80 0 80 -75 0
-75 0 0 -235 0 -235 1170 0 1170 0 0 235 0 235 -80 0 -80 0 0 80 0 80 80 0 80
0 0 75 0 75 -235 0 -235 0 0 80 0 80 -80 0 -80 0 0 75 0 75 235 0 235 0 0 235
0 235 80 0 80 0 0 470 0 470 -1250 0 -1250 0 0 -470z m2030 235 l0 -75 80 0
80 0 0 -80 0 -80 75 0 75 0 0 -155 0 -155 -390 0 -390 0 0 -80 0 -80 80 0 80
0 0 -310 0 -310 -80 0 -80 0 0 310 0 310 -310 0 -310 0 0 -155 0 -155 75 0 75
0 0 -80 0 -80 -75 0 -75 0 0 -75 0 -75 -80 0 -80 0 0 310 0 310 80 0 80 0 0
80 0 80 -235 0 -235 0 0 80 0 80 155 0 155 0 0 75 0 75 390 0 390 0 0 80 0 80
155 0 155 0 0 75 0 75 80 0 80 0 0 -75z m-1560 -780 l0 -75 75 0 75 0 0 -80 0
-80 -75 0 -75 0 0 80 0 80 -80 0 -80 0 0 75 0 75 80 0 80 0 0 -75z m1720 0 l0
-75 -80 0 -80 0 0 -80 0 -80 -80 0 -80 0 0 80 0 80 80 0 80 0 0 75 0 75 80 0
80 0 0 -75z m-160 -860 l0 -155 -80 0 -80 0 0 155 0 155 80 0 80 0 0 -155z"/>
</g>
</svg>
