<?xml version="1.0" standalone="no"?>
<svg xmlns="http://www.w3.org/2000/svg" width="200" height="200" xmlns:xlink="http://www.w3.org/1999/xlink" viewBox="0 0 200 200"><defs><clipPath id="clip-path-background-color-804"><rect x="0" y="0" width="200" height="200"/></clipPath><clipPath id="clip-path-dot-color-804"><circle cx="64" cy="16" r="3" transform="rotate(0,64,16)"/><circle cx="70" cy="16" r="3" transform="rotate(0,70,16)"/><circle cx="136" cy="16" r="3" transform="rotate(0,136,16)"/><circle cx="64" cy="22" r="3" transform="rotate(0,64,22)"/><circle cx="70" cy="22" r="3" transform="rotate(0,70,22)"/><circle cx="76" cy="22" r="3" transform="rotate(0,76,22)"/><circle cx="88" cy="22" r="3" transform="rotate(0,88,22)"/><circle cx="94" cy="22" r="3" transform="rotate(0,94,22)"/><circle cx="100" cy="22" r="3" transform="rotate(0,100,22)"/><circle cx="106" cy="22" r="3" transform="rotate(0,106,22)"/><circle cx="112" cy="22" r="3" transform="rotate(0,112,22)"/><circle cx="118" cy="22" r="3" transform="rotate(0,118,22)"/><circle cx="70" cy="28" r="3" transform="rotate(0,70,28)"/><circle cx="82" cy="28" r="3" transform="rotate(0,82,28)"/><circle cx="94" cy="28" r="3" transform="rotate(0,94,28)"/><circle cx="106" cy="28" r="3" transform="rotate(0,106,28)"/><circle cx="82" cy="34" r="3" transform="rotate(0,82,34)"/><circle cx="88" cy="34" r="3" transform="rotate(0,88,34)"/><circle cx="94" cy="34" r="3" transform="rotate(0,94,34)"/><circle cx="106" cy="34" r="3" transform="rotate(0,106,34)"/><circle cx="112" cy="34" r="3" transform="rotate(0,112,34)"/><circle cx="118" cy="34" r="3" transform="rotate(0,118,34)"/><circle cx="124" cy="34" r="3" transform="rotate(0,124,34)"/><circle cx="130" cy="34" r="3" transform="rotate(0,130,34)"/><circle cx="136" cy="34" r="3" transform="rotate(0,136,34)"/><circle cx="76" cy="40" r="3" transform="rotate(0,76,40)"/><circle cx="94" cy="40" r="3" transform="rotate(0,94,40)"/><circle cx="106" cy="40" r="3" transform="rotate(0,106,40)"/><circle cx="130" cy="40" r="3" transform="rotate(0,130,40)"/><circle cx="136" cy="40" r="3" transform="rotate(0,136,40)"/><circle cx="82" cy="46" r="3" transform="rotate(0,82,46)"/><circle cx="112" cy="46" r="3" transform="rotate(0,112,46)"/><circle cx="124" cy="46" r="3" transform="rotate(0,124,46)"/><circle cx="136" cy="46" r="3" transform="rotate(0,136,46)"/><circle cx="64" cy="52" r="3" transform="rotate(0,64,52)"/><circle cx="76" cy="52" r="3" transform="rotate(0,76,52)"/><circle cx="88" cy="52" r="3" transform="rotate(0,88,52)"/><circle cx="100" cy="52" r="3" transform="rotate(0,100,52)"/><circle cx="112" cy="52" r="3" transform="rotate(0,112,52)"/><circle cx="124" cy="52" r="3" transform="rotate(0,124,52)"/><circle cx="136" cy="52" r="3" transform="rotate(0,136,52)"/><circle cx="70" cy="58" r="3" transform="rotate(0,70,58)"/><circle cx="76" cy="58" r="3" transform="rotate(0,76,58)"/><circle cx="82" cy="58" r="3" transform="rotate(0,82,58)"/><circle cx="100" cy="58" r="3" transform="rotate(0,100,58)"/><circle cx="112" cy="58" r="3" transform="rotate(0,112,58)"/><circle cx="124" cy="58" r="3" transform="rotate(0,124,58)"/><circle cx="136" cy="58" r="3" transform="rotate(0,136,58)"/><circle cx="22" cy="64" r="3" transform="rotate(0,22,64)"/><circle cx="52" cy="64" r="3" transform="rotate(0,52,64)"/><circle cx="58" cy="64" r="3" transform="rotate(0,58,64)"/><circle cx="64" cy="64" r="3" transform="rotate(0,64,64)"/><circle cx="82" cy="64" r="3" transform="rotate(0,82,64)"/><circle cx="100" cy="64" r="3" transform="rotate(0,100,64)"/><circle cx="124" cy="64" r="3" transform="rotate(0,124,64)"/><circle cx="136" cy="64" r="3" transform="rotate(0,136,64)"/><circle cx="142" cy="64" r="3" transform="rotate(0,142,64)"/><circle cx="178" cy="64" r="3" transform="rotate(0,178,64)"/><circle cx="184" cy="64" r="3" transform="rotate(0,184,64)"/><circle cx="22" cy="70" r="3" transform="rotate(0,22,70)"/><circle cx="28" cy="70" r="3" transform="rotate(0,28,70)"/><circle cx="34" cy="70" r="3" transform="rotate(0,34,70)"/><circle cx="46" cy="70" r="3" transform="rotate(0,46,70)"/><circle cx="58" cy="70" r="3" transform="rotate(0,58,70)"/><circle cx="70" cy="70" r="3" transform="rotate(0,70,70)"/><circle cx="100" cy="70" r="3" transform="rotate(0,100,70)"/><circle cx="112" cy="70" r="3" transform="rotate(0,112,70)"/><circle cx="124" cy="70" r="3" transform="rotate(0,124,70)"/><circle cx="130" cy="70" r="3" transform="rotate(0,130,70)"/><circle cx="136" cy="70" r="3" transform="rotate(0,136,70)"/><circle cx="142" cy="70" r="3" transform="rotate(0,142,70)"/><circle cx="160" cy="70" r="3" transform="rotate(0,160,70)"/><circle cx="166" cy="70" r="3" transform="rotate(0,166,70)"/><circle cx="178" cy="70" r="3" transform="rotate(0,178,70)"/><circle cx="16" cy="76" r="3" transform="rotate(0,16,76)"/><circle cx="28" cy="76" r="3" transform="rotate(0,28,76)"/><circle cx="46" cy="76" r="3" transform="rotate(0,46,76)"/><circle cx="52" cy="76" r="3" transform="rotate(0,52,76)"/><circle cx="70" cy="76" r="3" transform="rotate(0,70,76)"/><circle cx="76" cy="76" r="3" transform="rotate(0,76,76)"/><circle cx="88" cy="76" r="3" transform="rotate(0,88,76)"/><circle cx="100" cy="76" r="3" transform="rotate(0,100,76)"/><circle cx="112" cy="76" r="3" transform="rotate(0,112,76)"/><circle cx="124" cy="76" r="3" transform="rotate(0,124,76)"/><circle cx="136" cy="76" r="3" transform="rotate(0,136,76)"/><circle cx="142" cy="76" r="3" transform="rotate(0,142,76)"/><circle cx="148" cy="76" r="3" transform="rotate(0,148,76)"/><circle cx="160" cy="76" r="3" transform="rotate(0,160,76)"/><circle cx="166" cy="76" r="3" transform="rotate(0,166,76)"/><circle cx="172" cy="76" r="3" transform="rotate(0,172,76)"/><circle cx="58" cy="82" r="3" transform="rotate(0,58,82)"/><circle cx="88" cy="82" r="3" transform="rotate(0,88,82)"/><circle cx="100" cy="82" r="3" transform="rotate(0,100,82)"/><circle cx="106" cy="82" r="3" transform="rotate(0,106,82)"/><circle cx="124" cy="82" r="3" transform="rotate(0,124,82)"/><circle cx="136" cy="82" r="3" transform="rotate(0,136,82)"/><circle cx="148" cy="82" r="3" transform="rotate(0,148,82)"/><circle cx="160" cy="82" r="3" transform="rotate(0,160,82)"/><circle cx="166" cy="82" r="3" transform="rotate(0,166,82)"/><circle cx="22" cy="88" r="3" transform="rotate(0,22,88)"/><circle cx="28" cy="88" r="3" transform="rotate(0,28,88)"/><circle cx="34" cy="88" r="3" transform="rotate(0,34,88)"/><circle cx="40" cy="88" r="3" transform="rotate(0,40,88)"/><circle cx="52" cy="88" r="3" transform="rotate(0,52,88)"/><circle cx="58" cy="88" r="3" transform="rotate(0,58,88)"/><circle cx="64" cy="88" r="3" transform="rotate(0,64,88)"/><circle cx="82" cy="88" r="3" transform="rotate(0,82,88)"/><circle cx="106" cy="88" r="3" transform="rotate(0,106,88)"/><circle cx="112" cy="88" r="3" transform="rotate(0,112,88)"/><circle cx="124" cy="88" r="3" transform="rotate(0,124,88)"/><circle cx="130" cy="88" r="3" transform="rotate(0,130,88)"/><circle cx="136" cy="88" r="3" transform="rotate(0,136,88)"/><circle cx="142" cy="88" r="3" transform="rotate(0,142,88)"/><circle cx="148" cy="88" r="3" transform="rotate(0,148,88)"/><circle cx="166" cy="88" r="3" transform="rotate(0,166,88)"/><circle cx="178" cy="88" r="3" transform="rotate(0,178,88)"/><circle cx="22" cy="94" r="3" transform="rotate(0,22,94)"/><circle cx="28" cy="94" r="3" transform="rotate(0,28,94)"/><circle cx="34" cy="94" r="3" transform="rotate(0,34,94)"/><circle cx="46" cy="94" r="3" transform="rotate(0,46,94)"/><circle cx="58" cy="94" r="3" transform="rotate(0,58,94)"/><circle cx="70" cy="94" r="3" transform="rotate(0,70,94)"/><circle cx="76" cy="94" r="3" transform="rotate(0,76,94)"/><circle cx="82" cy="94" r="3" transform="rotate(0,82,94)"/><circle cx="100" cy="94" r="3" transform="rotate(0,100,94)"/><circle cx="106" cy="94" r="3" transform="rotate(0,106,94)"/><circle cx="112" cy="94" r="3" transform="rotate(0,112,94)"/><circle cx="118" cy="94" r="3" transform="rotate(0,118,94)"/><circle cx="130" cy="94" r="3" transform="rotate(0,130,94)"/><circle cx="136" cy="94" r="3" transform="rotate(0,136,94)"/><circle cx="148" cy="94" r="3" transform="rotate(0,148,94)"/><circle cx="160" cy="94" r="3" transform="rotate(0,160,94)"/><circle cx="166" cy="94" r="3" transform="rotate(0,166,94)"/><circle cx="184" cy="94" r="3" transform="rotate(0,184,94)"/><circle cx="34" cy="100" r="3" transform="rotate(0,34,100)"/><circle cx="40" cy="100" r="3" transform="rotate(0,40,100)"/><circle cx="52" cy="100" r="3" transform="rotate(0,52,100)"/><circle cx="58" cy="100" r="3" transform="rotate(0,58,100)"/><circle cx="64" cy="100" r="3" transform="rotate(0,64,100)"/><circle cx="76" cy="100" r="3" transform="rotate(0,76,100)"/><circle cx="82" cy="100" r="3" transform="rotate(0,82,100)"/><circle cx="88" cy="100" r="3" transform="rotate(0,88,100)"/><circle cx="94" cy="100" r="3" transform="rotate(0,94,100)"/><circle cx="100" cy="100" r="3" transform="rotate(0,100,100)"/><circle cx="118" cy="100" r="3" transform="rotate(0,118,100)"/><circle cx="142" cy="100" r="3" transform="rotate(0,142,100)"/><circle cx="154" cy="100" r="3" transform="rotate(0,154,100)"/><circle cx="178" cy="100" r="3" transform="rotate(0,178,100)"/><circle cx="28" cy="106" r="3" transform="rotate(0,28,106)"/><circle cx="34" cy="106" r="3" transform="rotate(0,34,106)"/><circle cx="46" cy="106" r="3" transform="rotate(0,46,106)"/><circle cx="82" cy="106" r="3" transform="rotate(0,82,106)"/><circle cx="94" cy="106" r="3" transform="rotate(0,94,106)"/><circle cx="100" cy="106" r="3" transform="rotate(0,100,106)"/><circle cx="112" cy="106" r="3" transform="rotate(0,112,106)"/><circle cx="118" cy="106" r="3" transform="rotate(0,118,106)"/><circle cx="124" cy="106" r="3" transform="rotate(0,124,106)"/><circle cx="130" cy="106" r="3" transform="rotate(0,130,106)"/><circle cx="142" cy="106" r="3" transform="rotate(0,142,106)"/><circle cx="148" cy="106" r="3" transform="rotate(0,148,106)"/><circle cx="160" cy="106" r="3" transform="rotate(0,160,106)"/><circle cx="166" cy="106" r="3" transform="rotate(0,166,106)"/><circle cx="172" cy="106" r="3" transform="rotate(0,172,106)"/><circle cx="178" cy="106" r="3" transform="rotate(0,178,106)"/><circle cx="184" cy="106" r="3" transform="rotate(0,184,106)"/><circle cx="34" cy="112" r="3" transform="rotate(0,34,112)"/><circle cx="52" cy="112" r="3" transform="rotate(0,52,112)"/><circle cx="70" cy="112" r="3" transform="rotate(0,70,112)"/><circle cx="76" cy="112" r="3" transform="rotate(0,76,112)"/><circle cx="100" cy="112" r="3" transform="rotate(0,100,112)"/><circle cx="112" cy="112" r="3" transform="rotate(0,112,112)"/><circle cx="130" cy="112" r="3" transform="rotate(0,130,112)"/><circle cx="142" cy="112" r="3" transform="rotate(0,142,112)"/><circle cx="154" cy="112" r="3" transform="rotate(0,154,112)"/><circle cx="166" cy="112" r="3" transform="rotate(0,166,112)"/><circle cx="172" cy="112" r="3" transform="rotate(0,172,112)"/><circle cx="184" cy="112" r="3" transform="rotate(0,184,112)"/><circle cx="16" cy="118" r="3" transform="rotate(0,16,118)"/><circle cx="46" cy="118" r="3" transform="rotate(0,46,118)"/><circle cx="70" cy="118" r="3" transform="rotate(0,70,118)"/><circle cx="88" cy="118" r="3" transform="rotate(0,88,118)"/><circle cx="124" cy="118" r="3" transform="rotate(0,124,118)"/><circle cx="130" cy="118" r="3" transform="rotate(0,130,118)"/><circle cx="136" cy="118" r="3" transform="rotate(0,136,118)"/><circle cx="142" cy="118" r="3" transform="rotate(0,142,118)"/><circle cx="148" cy="118" r="3" transform="rotate(0,148,118)"/><circle cx="160" cy="118" r="3" transform="rotate(0,160,118)"/><circle cx="166" cy="118" r="3" transform="rotate(0,166,118)"/><circle cx="172" cy="118" r="3" transform="rotate(0,172,118)"/><circle cx="184" cy="118" r="3" transform="rotate(0,184,118)"/><circle cx="16" cy="124" r="3" transform="rotate(0,16,124)"/><circle cx="22" cy="124" r="3" transform="rotate(0,22,124)"/><circle cx="28" cy="124" r="3" transform="rotate(0,28,124)"/><circle cx="40" cy="124" r="3" transform="rotate(0,40,124)"/><circle cx="52" cy="124" r="3" transform="rotate(0,52,124)"/><circle cx="58" cy="124" r="3" transform="rotate(0,58,124)"/><circle cx="64" cy="124" r="3" transform="rotate(0,64,124)"/><circle cx="70" cy="124" r="3" transform="rotate(0,70,124)"/><circle cx="76" cy="124" r="3" transform="rotate(0,76,124)"/><circle cx="88" cy="124" r="3" transform="rotate(0,88,124)"/><circle cx="106" cy="124" r="3" transform="rotate(0,106,124)"/><circle cx="118" cy="124" r="3" transform="rotate(0,118,124)"/><circle cx="124" cy="124" r="3" transform="rotate(0,124,124)"/><circle cx="130" cy="124" r="3" transform="rotate(0,130,124)"/><circle cx="136" cy="124" r="3" transform="rotate(0,136,124)"/><circle cx="154" cy="124" r="3" transform="rotate(0,154,124)"/><circle cx="166" cy="124" r="3" transform="rotate(0,166,124)"/><circle cx="172" cy="124" r="3" transform="rotate(0,172,124)"/><circle cx="184" cy="124" r="3" transform="rotate(0,184,124)"/><circle cx="16" cy="130" r="3" transform="rotate(0,16,130)"/><circle cx="34" cy="130" r="3" transform="rotate(0,34,130)"/><circle cx="40" cy="130" r="3" transform="rotate(0,40,130)"/><circle cx="46" cy="130" r="3" transform="rotate(0,46,130)"/><circle cx="58" cy="130" r="3" transform="rotate(0,58,130)"/><circle cx="76" cy="130" r="3" transform="rotate(0,76,130)"/><circle cx="94" cy="130" r="3" transform="rotate(0,94,130)"/><circle cx="100" cy="130" r="3" transform="rotate(0,100,130)"/><circle cx="136" cy="130" r="3" transform="rotate(0,136,130)"/><circle cx="142" cy="130" r="3" transform="rotate(0,142,130)"/><circle cx="148" cy="130" r="3" transform="rotate(0,148,130)"/><circle cx="160" cy="130" r="3" transform="rotate(0,160,130)"/><circle cx="16" cy="136" r="3" transform="rotate(0,16,136)"/><circle cx="28" cy="136" r="3" transform="rotate(0,28,136)"/><circle cx="34" cy="136" r="3" transform="rotate(0,34,136)"/><circle cx="52" cy="136" r="3" transform="rotate(0,52,136)"/><circle cx="58" cy="136" r="3" transform="rotate(0,58,136)"/><circle cx="64" cy="136" r="3" transform="rotate(0,64,136)"/><circle cx="76" cy="136" r="3" transform="rotate(0,76,136)"/><circle cx="100" cy="136" r="3" transform="rotate(0,100,136)"/><circle cx="106" cy="136" r="3" transform="rotate(0,106,136)"/><circle cx="118" cy="136" r="3" transform="rotate(0,118,136)"/><circle cx="124" cy="136" r="3" transform="rotate(0,124,136)"/><circle cx="136" cy="136" r="3" transform="rotate(0,136,136)"/><circle cx="142" cy="136" r="3" transform="rotate(0,142,136)"/><circle cx="148" cy="136" r="3" transform="rotate(0,148,136)"/><circle cx="154" cy="136" r="3" transform="rotate(0,154,136)"/><circle cx="160" cy="136" r="3" transform="rotate(0,160,136)"/><circle cx="172" cy="136" r="3" transform="rotate(0,172,136)"/><circle cx="184" cy="136" r="3" transform="rotate(0,184,136)"/><circle cx="64" cy="142" r="3" transform="rotate(0,64,142)"/><circle cx="82" cy="142" r="3" transform="rotate(0,82,142)"/><circle cx="88" cy="142" r="3" transform="rotate(0,88,142)"/><circle cx="94" cy="142" r="3" transform="rotate(0,94,142)"/><circle cx="100" cy="142" r="3" transform="rotate(0,100,142)"/><circle cx="106" cy="142" r="3" transform="rotate(0,106,142)"/><circle cx="124" cy="142" r="3" transform="rotate(0,124,142)"/><circle cx="136" cy="142" r="3" transform="rotate(0,136,142)"/><circle cx="160" cy="142" r="3" transform="rotate(0,160,142)"/><circle cx="166" cy="142" r="3" transform="rotate(0,166,142)"/><circle cx="172" cy="142" r="3" transform="rotate(0,172,142)"/><circle cx="64" cy="148" r="3" transform="rotate(0,64,148)"/><circle cx="70" cy="148" r="3" transform="rotate(0,70,148)"/><circle cx="76" cy="148" r="3" transform="rotate(0,76,148)"/><circle cx="88" cy="148" r="3" transform="rotate(0,88,148)"/><circle cx="106" cy="148" r="3" transform="rotate(0,106,148)"/><circle cx="112" cy="148" r="3" transform="rotate(0,112,148)"/><circle cx="124" cy="148" r="3" transform="rotate(0,124,148)"/><circle cx="130" cy="148" r="3" transform="rotate(0,130,148)"/><circle cx="136" cy="148" r="3" transform="rotate(0,136,148)"/><circle cx="148" cy="148" r="3" transform="rotate(0,148,148)"/><circle cx="160" cy="148" r="3" transform="rotate(0,160,148)"/><circle cx="70" cy="154" r="3" transform="rotate(0,70,154)"/><circle cx="76" cy="154" r="3" transform="rotate(0,76,154)"/><circle cx="82" cy="154" r="3" transform="rotate(0,82,154)"/><circle cx="106" cy="154" r="3" transform="rotate(0,106,154)"/><circle cx="130" cy="154" r="3" transform="rotate(0,130,154)"/><circle cx="136" cy="154" r="3" transform="rotate(0,136,154)"/><circle cx="160" cy="154" r="3" transform="rotate(0,160,154)"/><circle cx="166" cy="154" r="3" transform="rotate(0,166,154)"/><circle cx="178" cy="154" r="3" transform="rotate(0,178,154)"/><circle cx="184" cy="154" r="3" transform="rotate(0,184,154)"/><circle cx="70" cy="160" r="3" transform="rotate(0,70,160)"/><circle cx="88" cy="160" r="3" transform="rotate(0,88,160)"/><circle cx="94" cy="160" r="3" transform="rotate(0,94,160)"/><circle cx="106" cy="160" r="3" transform="rotate(0,106,160)"/><circle cx="112" cy="160" r="3" transform="rotate(0,112,160)"/><circle cx="118" cy="160" r="3" transform="rotate(0,118,160)"/><circle cx="124" cy="160" r="3" transform="rotate(0,124,160)"/><circle cx="130" cy="160" r="3" transform="rotate(0,130,160)"/><circle cx="136" cy="160" r="3" transform="rotate(0,136,160)"/><circle cx="142" cy="160" r="3" transform="rotate(0,142,160)"/><circle cx="148" cy="160" r="3" transform="rotate(0,148,160)"/><circle cx="154" cy="160" r="3" transform="rotate(0,154,160)"/><circle cx="160" cy="160" r="3" transform="rotate(0,160,160)"/><circle cx="70" cy="166" r="3" transform="rotate(0,70,166)"/><circle cx="82" cy="166" r="3" transform="rotate(0,82,166)"/><circle cx="100" cy="166" r="3" transform="rotate(0,100,166)"/><circle cx="112" cy="166" r="3" transform="rotate(0,112,166)"/><circle cx="118" cy="166" r="3" transform="rotate(0,118,166)"/><circle cx="130" cy="166" r="3" transform="rotate(0,130,166)"/><circle cx="136" cy="166" r="3" transform="rotate(0,136,166)"/><circle cx="154" cy="166" r="3" transform="rotate(0,154,166)"/><circle cx="178" cy="166" r="3" transform="rotate(0,178,166)"/><circle cx="76" cy="172" r="3" transform="rotate(0,76,172)"/><circle cx="82" cy="172" r="3" transform="rotate(0,82,172)"/><circle cx="88" cy="172" r="3" transform="rotate(0,88,172)"/><circle cx="94" cy="172" r="3" transform="rotate(0,94,172)"/><circle cx="118" cy="172" r="3" transform="rotate(0,118,172)"/><circle cx="130" cy="172" r="3" transform="rotate(0,130,172)"/><circle cx="136" cy="172" r="3" transform="rotate(0,136,172)"/><circle cx="142" cy="172" r="3" transform="rotate(0,142,172)"/><circle cx="148" cy="172" r="3" transform="rotate(0,148,172)"/><circle cx="154" cy="172" r="3" transform="rotate(0,154,172)"/><circle cx="160" cy="172" r="3" transform="rotate(0,160,172)"/><circle cx="166" cy="172" r="3" transform="rotate(0,166,172)"/><circle cx="172" cy="172" r="3" transform="rotate(0,172,172)"/><circle cx="178" cy="172" r="3" transform="rotate(0,178,172)"/><circle cx="64" cy="178" r="3" transform="rotate(0,64,178)"/><circle cx="70" cy="178" r="3" transform="rotate(0,70,178)"/><circle cx="88" cy="178" r="3" transform="rotate(0,88,178)"/><circle cx="94" cy="178" r="3" transform="rotate(0,94,178)"/><circle cx="106" cy="178" r="3" transform="rotate(0,106,178)"/><circle cx="124" cy="178" r="3" transform="rotate(0,124,178)"/><circle cx="148" cy="178" r="3" transform="rotate(0,148,178)"/><circle cx="160" cy="178" r="3" transform="rotate(0,160,178)"/><circle cx="166" cy="178" r="3" transform="rotate(0,166,178)"/><circle cx="172" cy="178" r="3" transform="rotate(0,172,178)"/><circle cx="184" cy="178" r="3" transform="rotate(0,184,178)"/><circle cx="94" cy="184" r="3" transform="rotate(0,94,184)"/><circle cx="100" cy="184" r="3" transform="rotate(0,100,184)"/><circle cx="118" cy="184" r="3" transform="rotate(0,118,184)"/><circle cx="130" cy="184" r="3" transform="rotate(0,130,184)"/><circle cx="160" cy="184" r="3" transform="rotate(0,160,184)"/><circle cx="172" cy="184" r="3" transform="rotate(0,172,184)"/></clipPath><clipPath id="clip-path-corners-square-color-0-0-804"><path clip-rule="evenodd" d="M 34 13a 21 21 0 1 0 0.1 0zm 0 6a 15 15 0 1 1 -0.1 0Z" transform="rotate(0,34,34)"/><circle cx="28" cy="28" r="3" transform="rotate(0,28,28)"/><circle cx="34" cy="28" r="3" transform="rotate(0,34,28)"/><circle cx="40" cy="28" r="3" transform="rotate(0,40,28)"/><circle cx="28" cy="34" r="3" transform="rotate(0,28,34)"/><circle cx="34" cy="34" r="3" transform="rotate(0,34,34)"/><circle cx="40" cy="34" r="3" transform="rotate(0,40,34)"/><circle cx="28" cy="40" r="3" transform="rotate(0,28,40)"/><circle cx="34" cy="40" r="3" transform="rotate(0,34,40)"/><circle cx="40" cy="40" r="3" transform="rotate(0,40,40)"/></clipPath><clipPath id="clip-path-corners-square-color-1-0-804"><path clip-rule="evenodd" d="M 166 13a 21 21 0 1 0 0.1 0zm 0 6a 15 15 0 1 1 -0.1 0Z" transform="rotate(90,166,34)"/><circle cx="160" cy="28" r="3" transform="rotate(0,160,28)"/><circle cx="166" cy="28" r="3" transform="rotate(0,166,28)"/><circle cx="172" cy="28" r="3" transform="rotate(0,172,28)"/><circle cx="160" cy="34" r="3" transform="rotate(0,160,34)"/><circle cx="166" cy="34" r="3" transform="rotate(0,166,34)"/><circle cx="172" cy="34" r="3" transform="rotate(0,172,34)"/><circle cx="160" cy="40" r="3" transform="rotate(0,160,40)"/><circle cx="166" cy="40" r="3" transform="rotate(0,166,40)"/><circle cx="172" cy="40" r="3" transform="rotate(0,172,40)"/></clipPath><clipPath id="clip-path-corners-square-color-0-1-804"><path clip-rule="evenodd" d="M 34 145a 21 21 0 1 0 0.1 0zm 0 6a 15 15 0 1 1 -0.1 0Z" transform="rotate(-90,34,166)"/><circle cx="28" cy="160" r="3" transform="rotate(0,28,160)"/><circle cx="34" cy="160" r="3" transform="rotate(0,34,160)"/><circle cx="40" cy="160" r="3" transform="rotate(0,40,160)"/><circle cx="28" cy="166" r="3" transform="rotate(0,28,166)"/><circle cx="34" cy="166" r="3" transform="rotate(0,34,166)"/><circle cx="40" cy="166" r="3" transform="rotate(0,40,166)"/><circle cx="28" cy="172" r="3" transform="rotate(0,28,172)"/><circle cx="34" cy="172" r="3" transform="rotate(0,34,172)"/><circle cx="40" cy="172" r="3" transform="rotate(0,40,172)"/></clipPath></defs><rect x="0" y="0" height="200" width="200" clip-path="url('#clip-path-background-color-804')" fill="#33363b"/><rect x="0" y="0" height="200" width="200" clip-path="url('#clip-path-dot-color-804')" fill="#FFFFFF"/><rect x="13" y="13" height="42" width="42" clip-path="url('#clip-path-corners-square-color-0-0-804')" fill="#FFFFFF"/><rect x="145" y="13" height="42" width="42" clip-path="url('#clip-path-corners-square-color-1-0-804')" fill="#FFFFFF"/><rect x="13" y="145" height="42" width="42" clip-path="url('#clip-path-corners-square-color-0-1-804')" fill="#FFFFFF"/></svg>