<?xml version="1.0" standalone="no"?>
<svg xmlns="http://www.w3.org/2000/svg" width="200" height="200" xmlns:xlink="http://www.w3.org/1999/xlink" viewBox="0 0 200 200"><defs><clipPath id="clip-path-background-color-1210"><rect x="0" y="0" width="200" height="200"/></clipPath><clipPath id="clip-path-dot-color-1210"><circle cx="70" cy="16" r="3" transform="rotate(0,70,16)"/><circle cx="94" cy="16" r="3" transform="rotate(0,94,16)"/><circle cx="112" cy="16" r="3" transform="rotate(0,112,16)"/><circle cx="118" cy="16" r="3" transform="rotate(0,118,16)"/><circle cx="124" cy="16" r="3" transform="rotate(0,124,16)"/><circle cx="130" cy="16" r="3" transform="rotate(0,130,16)"/><circle cx="136" cy="16" r="3" transform="rotate(0,136,16)"/><circle cx="64" cy="22" r="3" transform="rotate(0,64,22)"/><circle cx="70" cy="22" r="3" transform="rotate(0,70,22)"/><circle cx="76" cy="22" r="3" transform="rotate(0,76,22)"/><circle cx="82" cy="22" r="3" transform="rotate(0,82,22)"/><circle cx="88" cy="22" r="3" transform="rotate(0,88,22)"/><circle cx="94" cy="22" r="3" transform="rotate(0,94,22)"/><circle cx="106" cy="22" r="3" transform="rotate(0,106,22)"/><circle cx="112" cy="22" r="3" transform="rotate(0,112,22)"/><circle cx="124" cy="22" r="3" transform="rotate(0,124,22)"/><circle cx="64" cy="28" r="3" transform="rotate(0,64,28)"/><circle cx="76" cy="28" r="3" transform="rotate(0,76,28)"/><circle cx="88" cy="28" r="3" transform="rotate(0,88,28)"/><circle cx="124" cy="28" r="3" transform="rotate(0,124,28)"/><circle cx="130" cy="28" r="3" transform="rotate(0,130,28)"/><circle cx="70" cy="34" r="3" transform="rotate(0,70,34)"/><circle cx="76" cy="34" r="3" transform="rotate(0,76,34)"/><circle cx="82" cy="34" r="3" transform="rotate(0,82,34)"/><circle cx="88" cy="34" r="3" transform="rotate(0,88,34)"/><circle cx="94" cy="34" r="3" transform="rotate(0,94,34)"/><circle cx="100" cy="34" r="3" transform="rotate(0,100,34)"/><circle cx="118" cy="34" r="3" transform="rotate(0,118,34)"/><circle cx="124" cy="34" r="3" transform="rotate(0,124,34)"/><circle cx="76" cy="40" r="3" transform="rotate(0,76,40)"/><circle cx="82" cy="40" r="3" transform="rotate(0,82,40)"/><circle cx="88" cy="40" r="3" transform="rotate(0,88,40)"/><circle cx="94" cy="40" r="3" transform="rotate(0,94,40)"/><circle cx="100" cy="40" r="3" transform="rotate(0,100,40)"/><circle cx="118" cy="40" r="3" transform="rotate(0,118,40)"/><circle cx="124" cy="40" r="3" transform="rotate(0,124,40)"/><circle cx="130" cy="40" r="3" transform="rotate(0,130,40)"/><circle cx="70" cy="46" r="3" transform="rotate(0,70,46)"/><circle cx="76" cy="46" r="3" transform="rotate(0,76,46)"/><circle cx="82" cy="46" r="3" transform="rotate(0,82,46)"/><circle cx="88" cy="46" r="3" transform="rotate(0,88,46)"/><circle cx="124" cy="46" r="3" transform="rotate(0,124,46)"/><circle cx="130" cy="46" r="3" transform="rotate(0,130,46)"/><circle cx="136" cy="46" r="3" transform="rotate(0,136,46)"/><circle cx="64" cy="52" r="3" transform="rotate(0,64,52)"/><circle cx="76" cy="52" r="3" transform="rotate(0,76,52)"/><circle cx="88" cy="52" r="3" transform="rotate(0,88,52)"/><circle cx="100" cy="52" r="3" transform="rotate(0,100,52)"/><circle cx="112" cy="52" r="3" transform="rotate(0,112,52)"/><circle cx="124" cy="52" r="3" transform="rotate(0,124,52)"/><circle cx="136" cy="52" r="3" transform="rotate(0,136,52)"/><circle cx="88" cy="58" r="3" transform="rotate(0,88,58)"/><circle cx="100" cy="58" r="3" transform="rotate(0,100,58)"/><circle cx="112" cy="58" r="3" transform="rotate(0,112,58)"/><circle cx="118" cy="58" r="3" transform="rotate(0,118,58)"/><circle cx="124" cy="58" r="3" transform="rotate(0,124,58)"/><circle cx="22" cy="64" r="3" transform="rotate(0,22,64)"/><circle cx="28" cy="64" r="3" transform="rotate(0,28,64)"/><circle cx="34" cy="64" r="3" transform="rotate(0,34,64)"/><circle cx="46" cy="64" r="3" transform="rotate(0,46,64)"/><circle cx="52" cy="64" r="3" transform="rotate(0,52,64)"/><circle cx="82" cy="64" r="3" transform="rotate(0,82,64)"/><circle cx="94" cy="64" r="3" transform="rotate(0,94,64)"/><circle cx="106" cy="64" r="3" transform="rotate(0,106,64)"/><circle cx="112" cy="64" r="3" transform="rotate(0,112,64)"/><circle cx="130" cy="64" r="3" transform="rotate(0,130,64)"/><circle cx="136" cy="64" r="3" transform="rotate(0,136,64)"/><circle cx="172" cy="64" r="3" transform="rotate(0,172,64)"/><circle cx="178" cy="64" r="3" transform="rotate(0,178,64)"/><circle cx="40" cy="70" r="3" transform="rotate(0,40,70)"/><circle cx="46" cy="70" r="3" transform="rotate(0,46,70)"/><circle cx="58" cy="70" r="3" transform="rotate(0,58,70)"/><circle cx="88" cy="70" r="3" transform="rotate(0,88,70)"/><circle cx="100" cy="70" r="3" transform="rotate(0,100,70)"/><circle cx="106" cy="70" r="3" transform="rotate(0,106,70)"/><circle cx="124" cy="70" r="3" transform="rotate(0,124,70)"/><circle cx="130" cy="70" r="3" transform="rotate(0,130,70)"/><circle cx="148" cy="70" r="3" transform="rotate(0,148,70)"/><circle cx="160" cy="70" r="3" transform="rotate(0,160,70)"/><circle cx="166" cy="70" r="3" transform="rotate(0,166,70)"/><circle cx="172" cy="70" r="3" transform="rotate(0,172,70)"/><circle cx="184" cy="70" r="3" transform="rotate(0,184,70)"/><circle cx="28" cy="76" r="3" transform="rotate(0,28,76)"/><circle cx="34" cy="76" r="3" transform="rotate(0,34,76)"/><circle cx="52" cy="76" r="3" transform="rotate(0,52,76)"/><circle cx="76" cy="76" r="3" transform="rotate(0,76,76)"/><circle cx="82" cy="76" r="3" transform="rotate(0,82,76)"/><circle cx="88" cy="76" r="3" transform="rotate(0,88,76)"/><circle cx="118" cy="76" r="3" transform="rotate(0,118,76)"/><circle cx="148" cy="76" r="3" transform="rotate(0,148,76)"/><circle cx="154" cy="76" r="3" transform="rotate(0,154,76)"/><circle cx="160" cy="76" r="3" transform="rotate(0,160,76)"/><circle cx="166" cy="76" r="3" transform="rotate(0,166,76)"/><circle cx="178" cy="76" r="3" transform="rotate(0,178,76)"/><circle cx="16" cy="82" r="3" transform="rotate(0,16,82)"/><circle cx="22" cy="82" r="3" transform="rotate(0,22,82)"/><circle cx="34" cy="82" r="3" transform="rotate(0,34,82)"/><circle cx="40" cy="82" r="3" transform="rotate(0,40,82)"/><circle cx="58" cy="82" r="3" transform="rotate(0,58,82)"/><circle cx="76" cy="82" r="3" transform="rotate(0,76,82)"/><circle cx="82" cy="82" r="3" transform="rotate(0,82,82)"/><circle cx="88" cy="82" r="3" transform="rotate(0,88,82)"/><circle cx="94" cy="82" r="3" transform="rotate(0,94,82)"/><circle cx="100" cy="82" r="3" transform="rotate(0,100,82)"/><circle cx="112" cy="82" r="3" transform="rotate(0,112,82)"/><circle cx="136" cy="82" r="3" transform="rotate(0,136,82)"/><circle cx="184" cy="82" r="3" transform="rotate(0,184,82)"/><circle cx="34" cy="88" r="3" transform="rotate(0,34,88)"/><circle cx="46" cy="88" r="3" transform="rotate(0,46,88)"/><circle cx="52" cy="88" r="3" transform="rotate(0,52,88)"/><circle cx="76" cy="88" r="3" transform="rotate(0,76,88)"/><circle cx="94" cy="88" r="3" transform="rotate(0,94,88)"/><circle cx="100" cy="88" r="3" transform="rotate(0,100,88)"/><circle cx="118" cy="88" r="3" transform="rotate(0,118,88)"/><circle cx="124" cy="88" r="3" transform="rotate(0,124,88)"/><circle cx="142" cy="88" r="3" transform="rotate(0,142,88)"/><circle cx="154" cy="88" r="3" transform="rotate(0,154,88)"/><circle cx="172" cy="88" r="3" transform="rotate(0,172,88)"/><circle cx="178" cy="88" r="3" transform="rotate(0,178,88)"/><circle cx="184" cy="88" r="3" transform="rotate(0,184,88)"/><circle cx="22" cy="94" r="3" transform="rotate(0,22,94)"/><circle cx="34" cy="94" r="3" transform="rotate(0,34,94)"/><circle cx="58" cy="94" r="3" transform="rotate(0,58,94)"/><circle cx="64" cy="94" r="3" transform="rotate(0,64,94)"/><circle cx="70" cy="94" r="3" transform="rotate(0,70,94)"/><circle cx="76" cy="94" r="3" transform="rotate(0,76,94)"/><circle cx="88" cy="94" r="3" transform="rotate(0,88,94)"/><circle cx="94" cy="94" r="3" transform="rotate(0,94,94)"/><circle cx="106" cy="94" r="3" transform="rotate(0,106,94)"/><circle cx="112" cy="94" r="3" transform="rotate(0,112,94)"/><circle cx="124" cy="94" r="3" transform="rotate(0,124,94)"/><circle cx="130" cy="94" r="3" transform="rotate(0,130,94)"/><circle cx="148" cy="94" r="3" transform="rotate(0,148,94)"/><circle cx="154" cy="94" r="3" transform="rotate(0,154,94)"/><circle cx="166" cy="94" r="3" transform="rotate(0,166,94)"/><circle cx="172" cy="94" r="3" transform="rotate(0,172,94)"/><circle cx="184" cy="94" r="3" transform="rotate(0,184,94)"/><circle cx="40" cy="100" r="3" transform="rotate(0,40,100)"/><circle cx="52" cy="100" r="3" transform="rotate(0,52,100)"/><circle cx="64" cy="100" r="3" transform="rotate(0,64,100)"/><circle cx="76" cy="100" r="3" transform="rotate(0,76,100)"/><circle cx="82" cy="100" r="3" transform="rotate(0,82,100)"/><circle cx="100" cy="100" r="3" transform="rotate(0,100,100)"/><circle cx="106" cy="100" r="3" transform="rotate(0,106,100)"/><circle cx="112" cy="100" r="3" transform="rotate(0,112,100)"/><circle cx="118" cy="100" r="3" transform="rotate(0,118,100)"/><circle cx="124" cy="100" r="3" transform="rotate(0,124,100)"/><circle cx="130" cy="100" r="3" transform="rotate(0,130,100)"/><circle cx="154" cy="100" r="3" transform="rotate(0,154,100)"/><circle cx="160" cy="100" r="3" transform="rotate(0,160,100)"/><circle cx="166" cy="100" r="3" transform="rotate(0,166,100)"/><circle cx="184" cy="100" r="3" transform="rotate(0,184,100)"/><circle cx="40" cy="106" r="3" transform="rotate(0,40,106)"/><circle cx="46" cy="106" r="3" transform="rotate(0,46,106)"/><circle cx="64" cy="106" r="3" transform="rotate(0,64,106)"/><circle cx="70" cy="106" r="3" transform="rotate(0,70,106)"/><circle cx="76" cy="106" r="3" transform="rotate(0,76,106)"/><circle cx="82" cy="106" r="3" transform="rotate(0,82,106)"/><circle cx="94" cy="106" r="3" transform="rotate(0,94,106)"/><circle cx="106" cy="106" r="3" transform="rotate(0,106,106)"/><circle cx="118" cy="106" r="3" transform="rotate(0,118,106)"/><circle cx="124" cy="106" r="3" transform="rotate(0,124,106)"/><circle cx="130" cy="106" r="3" transform="rotate(0,130,106)"/><circle cx="136" cy="106" r="3" transform="rotate(0,136,106)"/><circle cx="160" cy="106" r="3" transform="rotate(0,160,106)"/><circle cx="166" cy="106" r="3" transform="rotate(0,166,106)"/><circle cx="28" cy="112" r="3" transform="rotate(0,28,112)"/><circle cx="52" cy="112" r="3" transform="rotate(0,52,112)"/><circle cx="64" cy="112" r="3" transform="rotate(0,64,112)"/><circle cx="76" cy="112" r="3" transform="rotate(0,76,112)"/><circle cx="82" cy="112" r="3" transform="rotate(0,82,112)"/><circle cx="94" cy="112" r="3" transform="rotate(0,94,112)"/><circle cx="106" cy="112" r="3" transform="rotate(0,106,112)"/><circle cx="112" cy="112" r="3" transform="rotate(0,112,112)"/><circle cx="118" cy="112" r="3" transform="rotate(0,118,112)"/><circle cx="124" cy="112" r="3" transform="rotate(0,124,112)"/><circle cx="130" cy="112" r="3" transform="rotate(0,130,112)"/><circle cx="142" cy="112" r="3" transform="rotate(0,142,112)"/><circle cx="160" cy="112" r="3" transform="rotate(0,160,112)"/><circle cx="166" cy="112" r="3" transform="rotate(0,166,112)"/><circle cx="178" cy="112" r="3" transform="rotate(0,178,112)"/><circle cx="184" cy="112" r="3" transform="rotate(0,184,112)"/><circle cx="28" cy="118" r="3" transform="rotate(0,28,118)"/><circle cx="40" cy="118" r="3" transform="rotate(0,40,118)"/><circle cx="64" cy="118" r="3" transform="rotate(0,64,118)"/><circle cx="70" cy="118" r="3" transform="rotate(0,70,118)"/><circle cx="88" cy="118" r="3" transform="rotate(0,88,118)"/><circle cx="94" cy="118" r="3" transform="rotate(0,94,118)"/><circle cx="112" cy="118" r="3" transform="rotate(0,112,118)"/><circle cx="172" cy="118" r="3" transform="rotate(0,172,118)"/><circle cx="16" cy="124" r="3" transform="rotate(0,16,124)"/><circle cx="28" cy="124" r="3" transform="rotate(0,28,124)"/><circle cx="34" cy="124" r="3" transform="rotate(0,34,124)"/><circle cx="46" cy="124" r="3" transform="rotate(0,46,124)"/><circle cx="52" cy="124" r="3" transform="rotate(0,52,124)"/><circle cx="58" cy="124" r="3" transform="rotate(0,58,124)"/><circle cx="64" cy="124" r="3" transform="rotate(0,64,124)"/><circle cx="70" cy="124" r="3" transform="rotate(0,70,124)"/><circle cx="94" cy="124" r="3" transform="rotate(0,94,124)"/><circle cx="100" cy="124" r="3" transform="rotate(0,100,124)"/><circle cx="106" cy="124" r="3" transform="rotate(0,106,124)"/><circle cx="112" cy="124" r="3" transform="rotate(0,112,124)"/><circle cx="124" cy="124" r="3" transform="rotate(0,124,124)"/><circle cx="136" cy="124" r="3" transform="rotate(0,136,124)"/><circle cx="148" cy="124" r="3" transform="rotate(0,148,124)"/><circle cx="154" cy="124" r="3" transform="rotate(0,154,124)"/><circle cx="28" cy="130" r="3" transform="rotate(0,28,130)"/><circle cx="40" cy="130" r="3" transform="rotate(0,40,130)"/><circle cx="76" cy="130" r="3" transform="rotate(0,76,130)"/><circle cx="82" cy="130" r="3" transform="rotate(0,82,130)"/><circle cx="94" cy="130" r="3" transform="rotate(0,94,130)"/><circle cx="118" cy="130" r="3" transform="rotate(0,118,130)"/><circle cx="124" cy="130" r="3" transform="rotate(0,124,130)"/><circle cx="136" cy="130" r="3" transform="rotate(0,136,130)"/><circle cx="142" cy="130" r="3" transform="rotate(0,142,130)"/><circle cx="148" cy="130" r="3" transform="rotate(0,148,130)"/><circle cx="172" cy="130" r="3" transform="rotate(0,172,130)"/><circle cx="22" cy="136" r="3" transform="rotate(0,22,136)"/><circle cx="40" cy="136" r="3" transform="rotate(0,40,136)"/><circle cx="52" cy="136" r="3" transform="rotate(0,52,136)"/><circle cx="58" cy="136" r="3" transform="rotate(0,58,136)"/><circle cx="64" cy="136" r="3" transform="rotate(0,64,136)"/><circle cx="70" cy="136" r="3" transform="rotate(0,70,136)"/><circle cx="82" cy="136" r="3" transform="rotate(0,82,136)"/><circle cx="88" cy="136" r="3" transform="rotate(0,88,136)"/><circle cx="94" cy="136" r="3" transform="rotate(0,94,136)"/><circle cx="100" cy="136" r="3" transform="rotate(0,100,136)"/><circle cx="112" cy="136" r="3" transform="rotate(0,112,136)"/><circle cx="118" cy="136" r="3" transform="rotate(0,118,136)"/><circle cx="130" cy="136" r="3" transform="rotate(0,130,136)"/><circle cx="136" cy="136" r="3" transform="rotate(0,136,136)"/><circle cx="142" cy="136" r="3" transform="rotate(0,142,136)"/><circle cx="148" cy="136" r="3" transform="rotate(0,148,136)"/><circle cx="154" cy="136" r="3" transform="rotate(0,154,136)"/><circle cx="160" cy="136" r="3" transform="rotate(0,160,136)"/><circle cx="166" cy="136" r="3" transform="rotate(0,166,136)"/><circle cx="172" cy="136" r="3" transform="rotate(0,172,136)"/><circle cx="178" cy="136" r="3" transform="rotate(0,178,136)"/><circle cx="64" cy="142" r="3" transform="rotate(0,64,142)"/><circle cx="76" cy="142" r="3" transform="rotate(0,76,142)"/><circle cx="82" cy="142" r="3" transform="rotate(0,82,142)"/><circle cx="88" cy="142" r="3" transform="rotate(0,88,142)"/><circle cx="94" cy="142" r="3" transform="rotate(0,94,142)"/><circle cx="112" cy="142" r="3" transform="rotate(0,112,142)"/><circle cx="124" cy="142" r="3" transform="rotate(0,124,142)"/><circle cx="136" cy="142" r="3" transform="rotate(0,136,142)"/><circle cx="160" cy="142" r="3" transform="rotate(0,160,142)"/><circle cx="166" cy="142" r="3" transform="rotate(0,166,142)"/><circle cx="178" cy="142" r="3" transform="rotate(0,178,142)"/><circle cx="184" cy="142" r="3" transform="rotate(0,184,142)"/><circle cx="82" cy="148" r="3" transform="rotate(0,82,148)"/><circle cx="94" cy="148" r="3" transform="rotate(0,94,148)"/><circle cx="112" cy="148" r="3" transform="rotate(0,112,148)"/><circle cx="118" cy="148" r="3" transform="rotate(0,118,148)"/><circle cx="130" cy="148" r="3" transform="rotate(0,130,148)"/><circle cx="136" cy="148" r="3" transform="rotate(0,136,148)"/><circle cx="148" cy="148" r="3" transform="rotate(0,148,148)"/><circle cx="160" cy="148" r="3" transform="rotate(0,160,148)"/><circle cx="172" cy="148" r="3" transform="rotate(0,172,148)"/><circle cx="178" cy="148" r="3" transform="rotate(0,178,148)"/><circle cx="64" cy="154" r="3" transform="rotate(0,64,154)"/><circle cx="70" cy="154" r="3" transform="rotate(0,70,154)"/><circle cx="82" cy="154" r="3" transform="rotate(0,82,154)"/><circle cx="88" cy="154" r="3" transform="rotate(0,88,154)"/><circle cx="100" cy="154" r="3" transform="rotate(0,100,154)"/><circle cx="106" cy="154" r="3" transform="rotate(0,106,154)"/><circle cx="112" cy="154" r="3" transform="rotate(0,112,154)"/><circle cx="124" cy="154" r="3" transform="rotate(0,124,154)"/><circle cx="136" cy="154" r="3" transform="rotate(0,136,154)"/><circle cx="160" cy="154" r="3" transform="rotate(0,160,154)"/><circle cx="178" cy="154" r="3" transform="rotate(0,178,154)"/><circle cx="70" cy="160" r="3" transform="rotate(0,70,160)"/><circle cx="76" cy="160" r="3" transform="rotate(0,76,160)"/><circle cx="82" cy="160" r="3" transform="rotate(0,82,160)"/><circle cx="88" cy="160" r="3" transform="rotate(0,88,160)"/><circle cx="94" cy="160" r="3" transform="rotate(0,94,160)"/><circle cx="106" cy="160" r="3" transform="rotate(0,106,160)"/><circle cx="124" cy="160" r="3" transform="rotate(0,124,160)"/><circle cx="136" cy="160" r="3" transform="rotate(0,136,160)"/><circle cx="142" cy="160" r="3" transform="rotate(0,142,160)"/><circle cx="148" cy="160" r="3" transform="rotate(0,148,160)"/><circle cx="154" cy="160" r="3" transform="rotate(0,154,160)"/><circle cx="160" cy="160" r="3" transform="rotate(0,160,160)"/><circle cx="166" cy="160" r="3" transform="rotate(0,166,160)"/><circle cx="172" cy="160" r="3" transform="rotate(0,172,160)"/><circle cx="184" cy="160" r="3" transform="rotate(0,184,160)"/><circle cx="64" cy="166" r="3" transform="rotate(0,64,166)"/><circle cx="70" cy="166" r="3" transform="rotate(0,70,166)"/><circle cx="76" cy="166" r="3" transform="rotate(0,76,166)"/><circle cx="82" cy="166" r="3" transform="rotate(0,82,166)"/><circle cx="88" cy="166" r="3" transform="rotate(0,88,166)"/><circle cx="100" cy="166" r="3" transform="rotate(0,100,166)"/><circle cx="112" cy="166" r="3" transform="rotate(0,112,166)"/><circle cx="124" cy="166" r="3" transform="rotate(0,124,166)"/><circle cx="130" cy="166" r="3" transform="rotate(0,130,166)"/><circle cx="160" cy="166" r="3" transform="rotate(0,160,166)"/><circle cx="172" cy="166" r="3" transform="rotate(0,172,166)"/><circle cx="178" cy="166" r="3" transform="rotate(0,178,166)"/><circle cx="64" cy="172" r="3" transform="rotate(0,64,172)"/><circle cx="70" cy="172" r="3" transform="rotate(0,70,172)"/><circle cx="106" cy="172" r="3" transform="rotate(0,106,172)"/><circle cx="112" cy="172" r="3" transform="rotate(0,112,172)"/><circle cx="118" cy="172" r="3" transform="rotate(0,118,172)"/><circle cx="124" cy="172" r="3" transform="rotate(0,124,172)"/><circle cx="136" cy="172" r="3" transform="rotate(0,136,172)"/><circle cx="154" cy="172" r="3" transform="rotate(0,154,172)"/><circle cx="172" cy="172" r="3" transform="rotate(0,172,172)"/><circle cx="184" cy="172" r="3" transform="rotate(0,184,172)"/><circle cx="64" cy="178" r="3" transform="rotate(0,64,178)"/><circle cx="76" cy="178" r="3" transform="rotate(0,76,178)"/><circle cx="94" cy="178" r="3" transform="rotate(0,94,178)"/><circle cx="100" cy="178" r="3" transform="rotate(0,100,178)"/><circle cx="112" cy="178" r="3" transform="rotate(0,112,178)"/><circle cx="124" cy="178" r="3" transform="rotate(0,124,178)"/><circle cx="136" cy="178" r="3" transform="rotate(0,136,178)"/><circle cx="142" cy="178" r="3" transform="rotate(0,142,178)"/><circle cx="160" cy="178" r="3" transform="rotate(0,160,178)"/><circle cx="178" cy="178" r="3" transform="rotate(0,178,178)"/><circle cx="70" cy="184" r="3" transform="rotate(0,70,184)"/><circle cx="82" cy="184" r="3" transform="rotate(0,82,184)"/><circle cx="88" cy="184" r="3" transform="rotate(0,88,184)"/><circle cx="94" cy="184" r="3" transform="rotate(0,94,184)"/><circle cx="106" cy="184" r="3" transform="rotate(0,106,184)"/><circle cx="124" cy="184" r="3" transform="rotate(0,124,184)"/><circle cx="130" cy="184" r="3" transform="rotate(0,130,184)"/><circle cx="136" cy="184" r="3" transform="rotate(0,136,184)"/><circle cx="142" cy="184" r="3" transform="rotate(0,142,184)"/><circle cx="148" cy="184" r="3" transform="rotate(0,148,184)"/><circle cx="154" cy="184" r="3" transform="rotate(0,154,184)"/><circle cx="166" cy="184" r="3" transform="rotate(0,166,184)"/><circle cx="178" cy="184" r="3" transform="rotate(0,178,184)"/></clipPath><clipPath id="clip-path-corners-square-color-0-0-1210"><path clip-rule="evenodd" d="M 34 13a 21 21 0 1 0 0.1 0zm 0 6a 15 15 0 1 1 -0.1 0Z" transform="rotate(0,34,34)"/><circle cx="28" cy="28" r="3" transform="rotate(0,28,28)"/><circle cx="34" cy="28" r="3" transform="rotate(0,34,28)"/><circle cx="40" cy="28" r="3" transform="rotate(0,40,28)"/><circle cx="28" cy="34" r="3" transform="rotate(0,28,34)"/><circle cx="34" cy="34" r="3" transform="rotate(0,34,34)"/><circle cx="40" cy="34" r="3" transform="rotate(0,40,34)"/><circle cx="28" cy="40" r="3" transform="rotate(0,28,40)"/><circle cx="34" cy="40" r="3" transform="rotate(0,34,40)"/><circle cx="40" cy="40" r="3" transform="rotate(0,40,40)"/></clipPath><clipPath id="clip-path-corners-square-color-1-0-1210"><path clip-rule="evenodd" d="M 166 13a 21 21 0 1 0 0.1 0zm 0 6a 15 15 0 1 1 -0.1 0Z" transform="rotate(90,166,34)"/><circle cx="160" cy="28" r="3" transform="rotate(0,160,28)"/><circle cx="166" cy="28" r="3" transform="rotate(0,166,28)"/><circle cx="172" cy="28" r="3" transform="rotate(0,172,28)"/><circle cx="160" cy="34" r="3" transform="rotate(0,160,34)"/><circle cx="166" cy="34" r="3" transform="rotate(0,166,34)"/><circle cx="172" cy="34" r="3" transform="rotate(0,172,34)"/><circle cx="160" cy="40" r="3" transform="rotate(0,160,40)"/><circle cx="166" cy="40" r="3" transform="rotate(0,166,40)"/><circle cx="172" cy="40" r="3" transform="rotate(0,172,40)"/></clipPath><clipPath id="clip-path-corners-square-color-0-1-1210"><path clip-rule="evenodd" d="M 34 145a 21 21 0 1 0 0.1 0zm 0 6a 15 15 0 1 1 -0.1 0Z" transform="rotate(-90,34,166)"/><circle cx="28" cy="160" r="3" transform="rotate(0,28,160)"/><circle cx="34" cy="160" r="3" transform="rotate(0,34,160)"/><circle cx="40" cy="160" r="3" transform="rotate(0,40,160)"/><circle cx="28" cy="166" r="3" transform="rotate(0,28,166)"/><circle cx="34" cy="166" r="3" transform="rotate(0,34,166)"/><circle cx="40" cy="166" r="3" transform="rotate(0,40,166)"/><circle cx="28" cy="172" r="3" transform="rotate(0,28,172)"/><circle cx="34" cy="172" r="3" transform="rotate(0,34,172)"/><circle cx="40" cy="172" r="3" transform="rotate(0,40,172)"/></clipPath></defs><rect x="0" y="0" height="200" width="200" clip-path="url('#clip-path-background-color-1210')" fill="#33363b"/><rect x="0" y="0" height="200" width="200" clip-path="url('#clip-path-dot-color-1210')" fill="#FFFFFF"/><rect x="13" y="13" height="42" width="42" clip-path="url('#clip-path-corners-square-color-0-0-1210')" fill="#FFFFFF"/><rect x="145" y="13" height="42" width="42" clip-path="url('#clip-path-corners-square-color-1-0-1210')" fill="#FFFFFF"/><rect x="13" y="145" height="42" width="42" clip-path="url('#clip-path-corners-square-color-0-1-1210')" fill="#FFFFFF"/></svg>